<?xml version="1.0" encoding="UTF-8" standalone="no"?>
<svg width="726px" height="168px" viewBox="0 0 726 168" version="1.1" xmlns="http://www.w3.org/2000/svg" xmlns:xlink="http://www.w3.org/1999/xlink">
    <defs></defs>
    <g id="Page-1" stroke="none" stroke-width="1" fill="none" fill-rule="evenodd">
        <g id="logo" transform="translate(-62.000000, -51.000000)" fill="#000000">
            <path d="M117.004528,169.25409 C104.99887,169.25409 88.7730886,158.41502 88.7730886,114.413939 C88.7730886,97.4268166 91.5328607,62.1609728 117.328384,62.1609728 C132.742526,62.1609728 135.501299,74.9394346 138.583928,91.7651069 L148.642452,89.9851715 C146.695319,79.3085484 145.234968,68.7933752 144.261402,59.409348 C135.335373,55.6900204 125.764631,53.7476384 116.028962,53.7476384 C80.1719152,53.7476384 62,76.7193701 62,116.352334 C62,146.928158 70.9240297,180.09017 112.296623,180.09017 C126.250415,180.09017 145.233969,174.426467 151.88501,146.929154 L142.150341,144.663873 C138.261071,158.25357 130.472536,169.25409 117.004528,169.25409 Z M196.498161,157.606774 L196.498161,52.2935925 L193.740388,51 C182.707297,55.3681171 171.188422,58.1187453 162.102464,58.9269915 L162.102464,65.2364941 C171.837133,65.2364941 172.647772,67.1768828 172.647772,77.692056 L172.647772,157.444328 C172.647772,168.930194 171.837133,170.871579 162.102464,170.871579 L162.102464,177.666428 L206.071902,177.666428 L206.071902,170.871579 C197.470729,170.869586 196.498161,168.930194 196.498161,157.606774 Z M236.080551,85.1327046 C243.707158,85.1327046 249.711486,79.3085484 249.711486,70.8972071 C249.711486,62.9702156 244.193941,56.822163 236.080551,56.822163 C228.617871,56.822163 222.615542,62.6463192 222.615542,70.8972071 C222.615542,79.3085484 228.617871,85.1327046 236.080551,85.1327046 Z M249.061776,157.606774 L249.061776,94.6781816 L246.303003,93.2221426 C235.107984,97.9141562 224.561676,100.501341 214.665079,101.148138 L214.665079,107.61909 C224.399748,107.61909 225.050458,108.428333 225.050458,120.398548 L225.050458,157.444328 C225.050458,169.413547 224.238819,170.870582 214.665079,170.870582 L214.665079,177.664435 L258.634517,177.664435 L258.634517,170.870582 C250.034343,170.869586 249.061776,169.413547 249.061776,157.606774 Z M398.813151,158.091124 L398.813151,121.530691 C398.813151,97.9131596 385.832926,93.221146 375.287617,93.221146 C362.955104,93.221146 354.679786,100.014998 348.678456,106.809847 L348.028745,106.809847 C346.081611,101.633484 340.403137,93.221146 326.12449,93.221146 C314.93047,93.221146 306.492225,99.368202 300.489895,106.162054 L300.16504,106.162054 L299.515329,94.677185 L296.595628,93.221146 C287.023886,97.5892631 275.341084,100.176448 266.742909,101.147141 L266.742909,107.618093 C275.666939,107.45764 276.639506,109.074132 276.639506,120.559998 L276.639506,157.442334 C276.639506,169.413547 275.827867,170.869586 266.742909,170.869586 L266.742909,177.664435 L308.117501,177.664435 L308.117501,170.869586 C301.463462,170.869586 300.491894,169.73844 300.491894,158.091124 L300.491894,116.030431 C306.494224,107.779543 311.523986,103.413419 316.229892,103.413419 C325.801634,103.413419 325.801634,116.192878 325.801634,123.472076 L325.801634,158.578463 C325.801634,169.739436 325.153922,170.870582 318.178025,170.870582 L318.178025,177.665431 L357.278629,177.665431 L357.278629,170.870582 C350.625589,170.870582 349.652023,169.898893 349.652023,158.092121 L349.652023,115.869978 C354.844712,107.943983 359.711547,103.414416 365.39102,103.414416 C373.990194,103.414416 374.963761,114.737835 374.963761,122.98972 L374.963761,158.57946 C374.963761,169.41554 373.826267,170.871579 367.339154,170.871579 L367.339154,177.666428 L406.926541,177.666428 L406.926541,170.871579 C399.948645,170.869586 398.813151,169.57699 398.813151,158.091124 Z M493.875857,170.710129 C490.467373,170.710129 488.685166,167.797054 488.685166,159.061817 L488.685166,122.176491 C488.685166,95.1615348 469.539684,93.2191528 454.611326,93.2191528 C425.24639,93.2191528 419.564918,105.837161 419.564918,111.661317 C419.564918,115.866988 422.162762,119.587312 428.328019,119.587312 C434.494276,119.587312 437.090121,117.160581 438.712399,113.11636 C440.173749,108.586793 443.418306,100.659801 452.828119,100.659801 C459.47916,100.659801 464.835777,104.057226 464.835777,117.322031 L464.835777,124.763676 L453.801686,127.514304 C442.446738,130.102486 433.685636,133.49991 427.520379,137.545127 C419.244061,142.558048 415.67265,149.191446 415.67265,157.925688 C415.67265,172.971424 428.652875,179.765277 440.010822,179.765277 C453.47783,179.765277 460.13087,174.910817 465.32256,169.736446 L465.969273,169.736446 C468.565118,175.883503 472.946169,178.634131 482.683836,178.634131 C490.469372,178.634131 495.337207,177.662441 499.720257,175.883503 L498.420835,169.411553 C497.121413,170.223786 495.497136,170.710129 493.875857,170.710129 Z M456.078673,162.740283 C448.070236,172.476112 439.442075,165.41816 439.442075,165.41816 C439.442075,165.41816 430.816912,158.360207 438.824349,148.627368 C446.836785,138.892536 463.471384,136.21466 463.471384,136.21466 C463.471384,136.21466 464.090109,153.002462 456.078673,162.740283 Z M547.568969,170.223786 C541.891495,170.223786 538.807866,166.665908 538.807866,156.312185 L538.807866,103.250973 L558.278204,103.250973 L558.278204,95.3239813 L538.807866,95.3239813 L538.807866,69.1172716 L532.156826,69.1172716 C526.316424,87.2365365 518.202034,95.4864278 505.386736,96.9414703 L505.386736,103.250973 L514.958477,103.250973 L514.958477,155.504935 C514.958477,174.755346 526.316424,179.77026 539.458577,179.77026 C550.167812,179.77026 556.819853,177.181081 562.010544,172.651514 L557.954348,166.341015 C554.709792,168.930194 551.464236,170.223786 547.568969,170.223786 Z M604.187779,157.606774 L604.187779,94.6781816 L601.426007,93.2221426 C590.233987,97.9141562 579.686679,100.501341 569.789083,101.148138 L569.789083,107.61909 C579.523752,107.61909 580.176461,108.428333 580.176461,120.398548 L580.176461,157.444328 C580.176461,169.413547 579.363823,170.870582 569.789083,170.870582 L569.789083,177.664435 L613.757521,177.664435 L613.757521,170.870582 C605.159346,170.869586 604.187779,169.413547 604.187779,157.606774 Z M591.205555,85.1327046 C598.834161,85.1327046 604.835491,79.3085484 604.835491,70.8972071 C604.835491,62.9702156 599.318945,56.822163 591.205555,56.822163 C583.744874,56.822163 577.741545,62.6463192 577.741545,70.8972071 C577.742544,79.3085484 583.744874,85.1327046 591.205555,85.1327046 Z M667.782485,170.546686 C662.104012,170.546686 656.912321,167.636601 653.506836,161.650995 C650.098353,155.663396 648.314147,146.444805 648.314147,135.281839 C648.314147,112.148657 655.614899,100.662791 665.026711,100.662791 C670.056473,100.662791 672.814247,104.221666 674.76138,110.208268 C676.544587,115.223182 679.142431,120.074652 685.308688,120.074652 C690.175522,120.074652 692.932296,116.516774 692.932296,111.339414 C692.932296,102.927076 682.874771,93.221146 664.701856,93.221146 C639.392116,93.221146 623.004407,108.751233 623.004407,135.929632 C623.004407,149.841233 627.060603,161.975888 634.849137,169.89989 C641.340249,176.210389 650.26328,179.769263 662.91765,179.769263 C675.574019,179.769263 686.606111,174.106557 694.556573,160.842749 L687.579677,157.282878 C682.383989,165.856665 676.221731,170.546686 667.782485,170.546686 Z M745.815768,93.221146 C718.719823,93.221146 703.793464,108.427336 703.793464,135.929632 C703.793464,159.546166 712.716494,179.768267 745.815768,179.768267 C779.238898,179.768267 788,159.223267 788,135.929632 C788,109.721925 775.018775,93.221146 745.815768,93.221146 Z M756.84786,166.180562 C754.251015,170.223786 750.518676,172.327618 745.65284,172.327618 C740.947934,172.327618 737.052667,170.223786 734.456822,166.180562 C731.051337,160.679306 728.941275,151.297272 728.941275,136.576428 C728.941275,115.545085 732.670616,100.662791 745.489913,100.662791 L745.65284,100.662791 C750.518676,100.662791 754.415942,102.765626 757.011787,106.972294 C760.5792,112.79645 762.528332,122.34093 762.528332,136.577424 C762.528332,151.298268 760.417272,160.680302 756.84786,166.180562 Z M438.824349,199.738226 C430.816912,209.469071 439.442075,216.529017 439.442075,216.529017 C439.442075,216.529017 448.070236,223.584976 456.078673,213.850144 C464.092108,204.113319 463.471384,187.323525 463.471384,187.323525 C463.471384,187.323525 446.836785,190.003394 438.824349,199.738226 Z"></path>
        </g>
    </g>
</svg>